<svg width="16" height="16" viewBox="0 0 16 16" fill="none" xmlns="http://www.w3.org/2000/svg">
<path d="M7.99992 14.1668C11.4057 14.1668 14.1666 11.4059 14.1666 8.00016C14.1666 4.59441 11.4057 1.8335 7.99992 1.8335M7.99992 14.1668C4.59416 14.1668 1.83325 11.4059 1.83325 8.00016C1.83325 4.59441 4.59416 1.8335 7.99992 1.8335M7.99992 14.1668C6.43511 14.1668 5.16659 11.4059 5.16659 8.00016C5.16659 4.59441 6.43511 1.8335 7.99992 1.8335M7.99992 14.1668C9.56472 14.1668 10.8333 11.4059 10.8333 8.00016C10.8333 4.59441 9.56472 1.8335 7.99992 1.8335M13.9999 8.00016H1.99992" stroke="#1F1D25" stroke-width="1.05882" stroke-linecap="square"/>
</svg>
