<svg width="17" height="17" viewBox="0 0 17 17" fill="none" xmlns="http://www.w3.org/2000/svg">
<path d="M13.597 14.2949V11.8243C13.597 11.6294 13.439 11.4714 13.2441 11.4714L10.7735 11.4714M3.35334 2.64786L3.35334 5.11845C3.35334 5.31337 3.51136 5.47139 3.70628 5.47139H6.17687M2.69252 7.74345C2.66278 7.98192 2.64746 8.22487 2.64746 8.47139C2.64746 11.6876 5.25474 14.2949 8.47099 14.2949C10.3603 14.2949 12.0788 13.3952 13.1525 12.0008M14.2495 9.19933C14.2792 8.96086 14.2945 8.71792 14.2945 8.47139C14.2945 5.25515 11.6872 2.64786 8.47099 2.64786C6.58164 2.64786 4.86314 3.5476 3.78946 4.94198" stroke="#111014" stroke-opacity="0.56" stroke-width="1.05882" stroke-linecap="round" stroke-linejoin="round"/>
</svg>
