<svg width="18" height="18" viewBox="0 0 18 18" fill="none" xmlns="http://www.w3.org/2000/svg">
<path d="M14.4464 15.1875V12.5625C14.4464 12.3554 14.2785 12.1875 14.0714 12.1875H11.4464M3.5625 2.8125V5.4375C3.5625 5.64461 3.73039 5.8125 3.9375 5.8125H6.5625M2.86037 8.22656C2.82878 8.47994 2.8125 8.73807 2.8125 9C2.8125 12.4173 5.58274 15.1875 9 15.1875C11.0074 15.1875 12.8333 14.2315 13.9741 12.75M15.1396 9.77344C15.1712 9.52006 15.1875 9.26193 15.1875 9C15.1875 5.58274 12.4173 2.8125 9 2.8125C6.99256 2.8125 5.16666 3.76847 4.02588 5.25" stroke="#473BAB" stroke-width="1.5" stroke-linecap="round" stroke-linejoin="round"/>
</svg>
