<svg width="24" height="24" viewBox="0 0 24 24" fill="none" xmlns="http://www.w3.org/2000/svg">
<path d="M2.25 10.75L5.70625 5.22C5.88899 4.92762 6.20946 4.75 6.55425 4.75H17.4458C17.7905 4.75 18.111 4.92762 18.2938 5.22L21.75 10.75M2.25 10.75H0.75M2.25 10.75V18.25C2.25 18.8023 2.69772 19.25 3.25 19.25H4.75C5.30228 19.25 5.75 18.8023 5.75 18.25V17.1786H18.25V18.25C18.25 18.8023 18.6977 19.25 19.25 19.25H20.75C21.3023 19.25 21.75 18.8023 21.75 18.25V10.75M21.75 10.75H23.25M5.75 13.0357H7.75M16.25 13.0357H18.25" stroke="#111014" stroke-opacity="0.56" stroke-width="1.5" stroke-linecap="round" stroke-linejoin="round"/>
</svg>
