<svg width="30" height="30" viewBox="0 0 30 30" fill="none" xmlns="http://www.w3.org/2000/svg">
<g clip-path="url(#clip0_14006_89348)">
<path d="M16.67 8C17.2223 8 17.67 8.44772 17.67 9V13.5C17.67 14.0523 17.2223 14.5 16.67 14.5H13.33C12.7777 14.5 12.33 14.0523 12.33 13.5V9C12.33 8.44772 12.7777 8 13.33 8H16.67ZM18.67 13.5C18.67 14.0523 19.1177 14.5 19.67 14.5H23C23.5523 14.5 24 14.0523 24 13.5V9C24 8.44772 23.5523 8 23 8H19.67C19.1177 8 18.67 8.44772 18.67 9V13.5ZM16.67 22C17.2223 22 17.67 21.5523 17.67 21V16.5C17.67 15.9477 17.2223 15.5 16.67 15.5H13.33C12.7777 15.5 12.33 15.9477 12.33 16.5V21C12.33 21.5523 12.7777 22 13.33 22H16.67ZM19.67 15.5C19.1177 15.5 18.67 15.9477 18.67 16.5V21C18.67 21.5523 19.1177 22 19.67 22H23C23.5523 22 24 21.5523 24 21V16.5C24 15.9477 23.5523 15.5 23 15.5H19.67ZM11.33 16.5C11.33 15.9477 10.8823 15.5 10.33 15.5H7C6.44771 15.5 6 15.9477 6 16.5V21C6 21.5523 6.44772 22 7 22H10.33C10.8823 22 11.33 21.5523 11.33 21V16.5ZM10.33 14.5C10.8823 14.5 11.33 14.0523 11.33 13.5V9C11.33 8.44772 10.8823 8 10.33 8H7C6.44771 8 6 8.44772 6 9V13.5C6 14.0523 6.44772 14.5 7 14.5H10.33Z" fill="#111014" fill-opacity="0.56"/>
</g>
<defs>
<clipPath id="clip0_14006_89348">
<rect width="20" height="20" fill="white" transform="translate(5 5)"/>
</clipPath>
</defs>
</svg>
