<svg width="24" height="24" viewBox="0 0 24 24" fill="none" xmlns="http://www.w3.org/2000/svg">
<path d="M2.23213 11.5522L1.57049 11.1991L1.57049 11.1991L2.23213 11.5522ZM21.7698 11.5523L22.4315 11.1992V11.1992L21.7698 11.5523ZM2.23213 12.4476L1.57049 12.8008H1.57049L2.23213 12.4476ZM21.7698 12.4477L22.4315 12.8009V12.8009L21.7698 12.4477ZM2.23213 11.5522L2.89378 11.9054C5.21446 7.5576 8.66304 5.49998 12.001 5.5C15.3389 5.50002 18.7875 7.5577 21.1082 11.9055L21.7698 11.5523L22.4315 11.1992C19.9111 6.47726 16.0114 4.00003 12.001 4C7.99059 3.99997 4.09086 6.47714 1.57049 11.1991L2.23213 11.5522ZM2.23213 12.4476L1.57049 12.8008C4.09085 17.5227 7.99058 19.9999 12.001 19.9999C16.0114 20 19.9111 17.5228 22.4315 12.8009L21.7698 12.4477L21.1082 12.0945C18.7875 16.4423 15.3389 18.4999 12.001 18.4999C8.66305 18.4999 5.21446 16.4422 2.89378 12.0944L2.23213 12.4476ZM2.23213 11.5522L1.57049 11.1991C1.30463 11.6971 1.30463 12.3027 1.57049 12.8008L2.23213 12.4476L2.89378 12.0944C2.86353 12.0378 2.86353 11.9621 2.89378 11.9054L2.23213 11.5522ZM21.7698 11.5523L21.1082 11.9055C21.1384 11.9622 21.1384 12.0379 21.1082 12.0945L21.7698 12.4477L22.4315 12.8009C22.6973 12.3028 22.6973 11.6973 22.4315 11.1992L21.7698 11.5523ZM15.251 12H14.501C14.501 13.3807 13.3817 14.5 12.001 14.5V15.25V16C14.2101 16 16.001 14.2091 16.001 12H15.251ZM12.001 15.25V14.5C10.6203 14.5 9.50097 13.3807 9.50097 12H8.75097H8.00097C8.00097 14.2091 9.79183 16 12.001 16V15.25ZM8.75097 12H9.50097C9.50097 10.6193 10.6203 9.5 12.001 9.5V8.75V8C9.79183 8 8.00097 9.79086 8.00097 12H8.75097ZM12.001 8.75V9.5C13.3817 9.5 14.501 10.6193 14.501 12H15.251H16.001C16.001 9.79086 14.2101 8 12.001 8V8.75Z" fill="#111014" fill-opacity="0.56"/>
</svg>
