<svg width="36" height="36" viewBox="0 0 36 36" fill="none" xmlns="http://www.w3.org/2000/svg">
<path d="M11.2242 18.045C11.2242 9.57107 17.6103 2.63141 25.6988 2.04131C25.332 2.0118 24.9594 2 24.5867 2C15.9765 2 9 9.1816 9 18.045C9 26.9084 15.9765 34.09 24.5867 34.09C24.9594 34.09 25.332 34.0782 25.6988 34.0487C17.6103 33.4586 11.2242 26.5189 11.2242 18.045Z" fill="#1F1D25"/>
<path d="M15.1223 18.045C15.1223 11.6895 19.909 6.48481 25.9797 6.04223C25.7046 6.02453 25.4237 6.01273 25.1428 6.01273C18.688 6.01273 13.4542 11.4004 13.4542 18.045C13.4542 24.6896 18.688 30.0773 25.1428 30.0773C25.4237 30.0773 25.7046 30.0655 25.9797 30.0478C19.9147 29.6052 15.1223 24.4004 15.1223 18.045Z" fill="#1F1D25"/>
<path d="M26.2606 10.0432C26.0772 10.0314 25.8938 10.0255 25.7046 10.0255C21.3995 10.0255 17.9083 13.6192 17.9083 18.0509C17.9083 22.4826 21.3995 26.0764 25.7046 26.0764C25.8938 26.0764 26.0772 26.0704 26.2606 26.0527C22.2135 25.7577 19.0262 22.2879 19.0262 18.0509C19.0262 13.8139 22.2192 10.3441 26.2606 10.0491V10.0432Z" fill="#1F1D25"/>
</svg>
