<svg width="24" height="24" viewBox="0 0 24 24" fill="none" xmlns="http://www.w3.org/2000/svg">
<path d="M4.29601 20.141L4.6365 19.4727L4.6365 19.4727L4.29601 20.141ZM3.85899 19.704L3.19074 20.0445L3.19074 20.0445L3.85899 19.704ZM20.141 19.704L19.4728 19.3635H19.4728L20.141 19.704ZM19.704 20.141L19.3635 19.4727V19.4727L19.704 20.141ZM20.141 4.29601L19.4728 4.6365L19.4728 4.6365L20.141 4.29601ZM19.704 3.85899L20.0445 3.19074L20.0445 3.19074L19.704 3.85899ZM3.85899 4.29601L3.19074 3.95552L3.19074 3.95552L3.85899 4.29601ZM4.29601 3.85899L3.95552 3.19074L3.95552 3.19074L4.29601 3.85899ZM20.25 5.35H19.5V18.65H20.25H21V5.35H20.25ZM18.65 20.25V19.5H5.35V20.25V21H18.65V20.25ZM3.75 18.65H4.5V5.35H3.75H3V18.65H3.75ZM5.35 3.75V4.5H18.65V3.75V3H5.35V3.75ZM5.35 20.25V19.5C5.0576 19.5 4.8834 19.4994 4.75428 19.4889C4.6339 19.479 4.62011 19.4644 4.6365 19.4727L4.29601 20.141L3.95552 20.8093C4.18582 20.9266 4.419 20.9665 4.63213 20.9839C4.83651 21.0006 5.08235 21 5.35 21V20.25ZM3.75 18.65H3C3 18.9176 2.99942 19.1635 3.01612 19.3679C3.03353 19.581 3.07339 19.8142 3.19074 20.0445L3.85899 19.704L4.52725 19.3635C4.5356 19.3799 4.52097 19.3661 4.51113 19.2457C4.50058 19.1166 4.5 18.9424 4.5 18.65H3.75ZM4.29601 20.141L4.6365 19.4727C4.58946 19.4488 4.55122 19.4105 4.52725 19.3635L3.85899 19.704L3.19074 20.0445C3.35852 20.3738 3.62623 20.6415 3.95552 20.8093L4.29601 20.141ZM20.25 18.65H19.5C19.5 18.9424 19.4994 19.1166 19.4889 19.2457C19.479 19.3661 19.4644 19.3799 19.4728 19.3635L20.141 19.704L20.8093 20.0445C20.9266 19.8142 20.9665 19.581 20.9839 19.3679C21.0006 19.1635 21 18.9176 21 18.65H20.25ZM18.65 20.25V21C18.9177 21 19.1635 21.0006 19.3679 20.9839C19.581 20.9665 19.8142 20.9266 20.0445 20.8093L19.704 20.141L19.3635 19.4727C19.3799 19.4644 19.3661 19.479 19.2457 19.4889C19.1166 19.4994 18.9424 19.5 18.65 19.5V20.25ZM20.141 19.704L19.4728 19.3635C19.4488 19.4105 19.4105 19.4488 19.3635 19.4727L19.704 20.141L20.0445 20.8093C20.3738 20.6415 20.6415 20.3738 20.8093 20.0445L20.141 19.704ZM20.25 5.35H21C21 5.08235 21.0006 4.83651 20.9839 4.63213C20.9665 4.419 20.9266 4.18582 20.8093 3.95552L20.141 4.29601L19.4728 4.6365C19.4644 4.62011 19.479 4.6339 19.4889 4.75428C19.4994 4.8834 19.5 5.0576 19.5 5.35H20.25ZM18.65 3.75V4.5C18.9424 4.5 19.1166 4.50058 19.2457 4.51113C19.3661 4.52097 19.3799 4.5356 19.3635 4.52725L19.704 3.85899L20.0445 3.19074C19.8142 3.07339 19.581 3.03353 19.3679 3.01612C19.1635 2.99942 18.9177 3 18.65 3V3.75ZM20.141 4.29601L20.8093 3.95552C20.6415 3.62623 20.3738 3.35852 20.0445 3.19074L19.704 3.85899L19.3635 4.52725C19.4105 4.55122 19.4488 4.58946 19.4728 4.6365L20.141 4.29601ZM3.75 5.35H4.5C4.5 5.0576 4.50058 4.8834 4.51113 4.75428C4.52097 4.6339 4.5356 4.62011 4.52725 4.6365L3.85899 4.29601L3.19074 3.95552C3.07339 4.18582 3.03353 4.419 3.01612 4.63213C2.99942 4.83651 3 5.08235 3 5.35H3.75ZM5.35 3.75V3C5.08235 3 4.83651 2.99942 4.63213 3.01612C4.419 3.03353 4.18582 3.07339 3.95552 3.19074L4.29601 3.85899L4.6365 4.52725C4.62011 4.5356 4.6339 4.52097 4.75428 4.51113C4.8834 4.50058 5.0576 4.5 5.35 4.5V3.75ZM3.85899 4.29601L4.52725 4.6365C4.55122 4.58946 4.58946 4.55122 4.6365 4.52725L4.29601 3.85899L3.95552 3.19074C3.62623 3.35852 3.35852 3.62623 3.19074 3.95552L3.85899 4.29601Z" fill="#111014" fill-opacity="0.56"/>
<path d="M3.75 12H20.25" stroke="#111014" stroke-opacity="0.56" stroke-width="1.5" stroke-linecap="square"/>
<path d="M12.75 3.75V3H11.25V3.75H12H12.75ZM11.25 20.25V21H12.75V20.25H12H11.25ZM12 3.75H11.25V12H12H12.75V3.75H12ZM12 12H11.25V20.25H12H12.75V12H12Z" fill="#111014" fill-opacity="0.56"/>
</svg>
