<svg width="24" height="24" viewBox="0 0 24 24" fill="none" xmlns="http://www.w3.org/2000/svg">
<path d="M5.45926 5.46094C3.78534 7.13486 2.75 9.44736 2.75 12.0017C2.75 14.556 3.78534 16.8685 5.45926 18.5424M8.36626 8.36793C7.4363 9.29789 6.86111 10.5826 6.86111 12.0017C6.86111 13.4207 7.4363 14.7055 8.36626 15.6354M15.6337 15.6354C16.5637 14.7055 17.1389 13.4207 17.1389 12.0017C17.1389 10.5826 16.5637 9.29789 15.6337 8.36793M18.5407 18.5424C20.2147 16.8685 21.25 14.556 21.25 12.0017C21.25 9.44736 20.2147 7.13486 18.5407 5.46094M12.75 12.0009C12.75 12.4152 12.4142 12.7509 12 12.7509C11.5858 12.7509 11.25 12.4152 11.25 12.0009C11.25 11.5867 11.5858 11.2509 12 11.2509C12.4142 11.2509 12.75 11.5867 12.75 12.0009Z" stroke="#111014" stroke-opacity="0.56" stroke-width="1.5" stroke-linecap="round" stroke-linejoin="round"/>
</svg>
