<svg width="24" height="24" viewBox="0 0 24 24" fill="none" xmlns="http://www.w3.org/2000/svg">
<path d="M5.68964 20.3144L4.94119 20.3627V20.3627L5.68964 20.3144ZM18.3104 20.3144L19.0588 20.3627V20.3627L18.3104 20.3144ZM2.75 5C2.33579 5 2 5.33579 2 5.75C2 6.16421 2.33579 6.5 2.75 6.5V5.75V5ZM21.25 6.5C21.6642 6.5 22 6.16421 22 5.75C22 5.33579 21.6642 5 21.25 5V5.75V6.5ZM10.5 10.75C10.5 10.3358 10.1642 10 9.75 10C9.33579 10 9 10.3358 9 10.75H9.75H10.5ZM9 16.25C9 16.6642 9.33579 17 9.75 17C10.1642 17 10.5 16.6642 10.5 16.25H9.75H9ZM15 10.75C15 10.3358 14.6642 10 14.25 10C13.8358 10 13.5 10.3358 13.5 10.75H14.25H15ZM13.5 16.25C13.5 16.6642 13.8358 17 14.25 17C14.6642 17 15 16.6642 15 16.25H14.25H13.5ZM15.1477 5.93694C15.2509 6.33808 15.6598 6.57957 16.0609 6.47633C16.4621 6.37308 16.7036 5.9642 16.6003 5.56306L15.874 5.75L15.1477 5.93694ZM4.75 5.75L4.00156 5.79829L4.94119 20.3627L5.68964 20.3144L6.43808 20.2661L5.49844 5.70171L4.75 5.75ZM6.68756 21.25V22H17.3124V21.25V20.5H6.68756V21.25ZM18.3104 20.3144L19.0588 20.3627L19.9984 5.79829L19.25 5.75L18.5016 5.70171L17.5619 20.2661L18.3104 20.3144ZM19.25 5.75V5H4.75V5.75V6.5H19.25V5.75ZM2.75 5.75V6.5H4.75V5.75V5H2.75V5.75ZM19.25 5.75V6.5H21.25V5.75V5H19.25V5.75ZM17.3124 21.25V22C18.2352 22 18.9994 21.2835 19.0588 20.3627L18.3104 20.3144L17.5619 20.2661C17.5534 20.3976 17.4443 20.5 17.3124 20.5V21.25ZM5.68964 20.3144L4.94119 20.3627C5.0006 21.2835 5.76481 22 6.68756 22V21.25V20.5C6.55574 20.5 6.44657 20.3976 6.43808 20.2661L5.68964 20.3144ZM9.75 10.75H9V16.25H9.75H10.5V10.75H9.75ZM14.25 10.75H13.5V16.25H14.25H15V10.75H14.25ZM12 2.75V3.5C13.5134 3.5 14.7868 4.53504 15.1477 5.93694L15.874 5.75L16.6003 5.56306C16.0731 3.51451 14.2144 2 12 2V2.75ZM8.12604 5.75L8.85237 5.93694C9.21319 4.53504 10.4867 3.5 12 3.5V2.75V2C9.78568 2 7.92697 3.51451 7.39971 5.56306L8.12604 5.75Z" fill="#111014" fill-opacity="0.56"/>
</svg>
