<svg width="20" height="20" viewBox="0 0 20 20" fill="none" xmlns="http://www.w3.org/2000/svg">
<path d="M2.5 4.16683C2.5 3.70659 2.8731 3.3335 3.33333 3.3335H16.6667C17.1269 3.3335 17.5 3.70659 17.5 4.16683V5.8335C17.5 6.29373 17.1269 6.66683 16.6667 6.66683H3.33333C2.8731 6.66683 2.5 6.29373 2.5 5.8335V4.16683Z" fill="#111014" fill-opacity="0.56"/>
<path d="M2.5 9.16683C2.5 8.70659 2.8731 8.3335 3.33333 8.3335H16.6667C17.1269 8.3335 17.5 8.70659 17.5 9.16683V10.8335C17.5 11.2937 17.1269 11.6668 16.6667 11.6668H3.33333C2.8731 11.6668 2.5 11.2937 2.5 10.8335V9.16683Z" fill="#111014" fill-opacity="0.56"/>
<path d="M2.5 14.1668C2.5 13.7066 2.8731 13.3335 3.33333 13.3335H16.6667C17.1269 13.3335 17.5 13.7066 17.5 14.1668V15.8335C17.5 16.2937 17.1269 16.6668 16.6667 16.6668H3.33333C2.8731 16.6668 2.5 16.2937 2.5 15.8335V14.1668Z" fill="#111014" fill-opacity="0.56"/>
</svg>
