<svg width="20" height="20" viewBox="0 0 20 20" fill="none" xmlns="http://www.w3.org/2000/svg">
<path d="M11.67 3C12.2223 3 12.67 3.44772 12.67 4V8.5C12.67 9.05228 12.2223 9.5 11.67 9.5H8.33C7.77772 9.5 7.33 9.05228 7.33 8.5V4C7.33 3.44772 7.77772 3 8.33 3H11.67ZM13.67 8.5C13.67 9.05228 14.1177 9.5 14.67 9.5H18C18.5523 9.5 19 9.05228 19 8.5V4C19 3.44772 18.5523 3 18 3H14.67C14.1177 3 13.67 3.44772 13.67 4V8.5ZM11.67 17C12.2223 17 12.67 16.5523 12.67 16V11.5C12.67 10.9477 12.2223 10.5 11.67 10.5H8.33C7.77772 10.5 7.33 10.9477 7.33 11.5V16C7.33 16.5523 7.77772 17 8.33 17H11.67ZM14.67 10.5C14.1177 10.5 13.67 10.9477 13.67 11.5V16C13.67 16.5523 14.1177 17 14.67 17H18C18.5523 17 19 16.5523 19 16V11.5C19 10.9477 18.5523 10.5 18 10.5H14.67ZM6.33 11.5C6.33 10.9477 5.88228 10.5 5.33 10.5H2C1.44771 10.5 1 10.9477 1 11.5V16C1 16.5523 1.44772 17 2 17H5.33C5.88229 17 6.33 16.5523 6.33 16V11.5ZM5.33 9.5C5.88229 9.5 6.33 9.05228 6.33 8.5V4C6.33 3.44772 5.88228 3 5.33 3H2C1.44771 3 1 3.44772 1 4V8.5C1 9.05228 1.44772 9.5 2 9.5H5.33Z" fill="#111014" fill-opacity="0.56"/>
</svg>
