<svg width="24" height="24" viewBox="0 0 24 24" fill="none" xmlns="http://www.w3.org/2000/svg">
<path d="M17.2498 14.25H20.252C20.8042 14.25 21.252 13.8023 21.252 13.25V4.75C21.252 4.19772 20.8042 3.75 20.252 3.75H8.00195C7.44967 3.75 7.00195 4.19772 7.00195 4.75V7.75M16.252 7.75H3.75195C3.19967 7.75 2.75195 8.19772 2.75195 8.75V17.25C2.75195 17.8023 3.19967 18.25 3.75195 18.25H6.00195V20.75L10.502 18.25H16.252C16.8042 18.25 17.252 17.8023 17.252 17.25V8.75C17.252 8.19772 16.8042 7.75 16.252 7.75Z" stroke="#ACABFF" stroke-width="1.25" stroke-linecap="round" stroke-linejoin="round"/>
</svg>
