<svg width="24" height="24" viewBox="0 0 24 24" fill="none" xmlns="http://www.w3.org/2000/svg">
<path fill-rule="evenodd" clip-rule="evenodd" d="M4.125 10C4.125 9.51675 4.51675 9.125 5 9.125C10.4538 9.125 14.875 13.5462 14.875 19C14.875 19.4832 14.4832 19.875 14 19.875C13.5168 19.875 13.125 19.4832 13.125 19C13.125 14.5127 9.48731 10.875 5 10.875C4.51675 10.875 4.125 10.4832 4.125 10Z" fill="#ACABFF"/>
<path fill-rule="evenodd" clip-rule="evenodd" d="M4.12548 4.47955C4.1413 3.99656 4.54566 3.61784 5.02865 3.63366C13.3762 3.90706 20.093 10.6238 20.3664 18.9714C20.3822 19.4544 20.0035 19.8587 19.5205 19.8745C19.0375 19.8904 18.6331 19.5116 18.6173 19.0287C18.3741 11.6026 12.3974 5.62593 4.97137 5.38272C4.48838 5.3669 4.10966 4.96254 4.12548 4.47955Z" fill="#ACABFF"/>
<path d="M8.5 17.5C8.5 18.6046 7.60457 19.5 6.5 19.5C5.39543 19.5 4.5 18.6046 4.5 17.5C4.5 16.3954 5.39543 15.5 6.5 15.5C7.60457 15.5 8.5 16.3954 8.5 17.5Z" fill="#ACABFF"/>
</svg>
