<svg width="25" height="24" viewBox="0 0 25 24" fill="none" xmlns="http://www.w3.org/2000/svg">
<path d="M15.3203 14.3813C16.7441 14.3813 17.8984 13.2248 17.8984 11.7982C17.8984 10.3716 16.7441 9.21506 15.3203 9.21506M10.447 18.0407C10.0931 19.044 9.13812 19.7628 8.0156 19.7628C6.59175 19.7628 5.43749 18.6062 5.43749 17.1797V15.8881M5.43938 7.70825V15.8881M15.3203 5.86162V17.7347C15.3203 18.3143 14.7601 18.7284 14.2074 18.5574L2.60585 14.9684C2.24567 14.857 2 14.5235 2 14.1457V9.45059C2 9.07291 2.24567 8.7393 2.60585 8.62788L14.2074 5.03891C14.7601 4.8679 15.3203 5.28197 15.3203 5.86162Z" stroke="#ACABFF" stroke-width="1.5" stroke-linecap="round" stroke-linejoin="round"/>
<path d="M22.3457 7.78247L20.1709 9.60734" stroke="#ACABFF" stroke-width="1.5" stroke-linecap="round" stroke-linejoin="round"/>
<path d="M21.1611 11.8746H24.0001" stroke="#ACABFF" stroke-width="1.5" stroke-linecap="round" stroke-linejoin="round"/>
<path d="M22.3457 15.9706L20.1709 14.1457" stroke="#ACABFF" stroke-width="1.5" stroke-linecap="round" stroke-linejoin="round"/>
</svg>
