<svg width="40" height="40" viewBox="0 0 40 40" fill="none" xmlns="http://www.w3.org/2000/svg">
<rect width="40" height="40" rx="4" fill="white"/>
<path d="M20.0001 32.323C13.2416 32.323 7.70443 26.7587 7.70443 20.0001C7.70443 18.4801 7.97585 17.0416 8.49157 15.6844L15.6844 30.1516C15.7659 30.3416 15.9016 30.5044 16.1187 30.5044C16.3359 30.5044 16.4716 30.3416 16.553 30.1516L19.8644 22.7416C19.8916 22.6601 19.9459 22.5787 20.0273 22.5787C20.1087 22.5787 20.1359 22.6601 20.1901 22.7416L23.5016 30.1516C23.583 30.3416 23.7187 30.5044 23.9359 30.5044C24.153 30.5044 24.2887 30.3416 24.3701 30.1516L31.563 15.6844C32.0787 17.0416 32.3501 18.4801 32.3501 20.0001C32.2959 26.7587 26.7587 32.323 20.0001 32.323ZM20.0001 17.2044C19.9187 17.2044 19.8916 17.123 19.8373 17.0416L15.983 8.35585C17.2316 7.89442 18.5887 7.65014 20.0001 7.65014C21.4116 7.65014 22.7687 7.89442 24.0173 8.35585L20.163 17.0416C20.1087 17.1501 20.0816 17.2044 20.0001 17.2044ZM16.0644 26.1344C15.983 26.1344 15.9559 26.053 15.9016 25.9716L9.65871 13.3773C10.7716 11.6673 12.2644 10.2287 14.083 9.22442L18.5887 19.2401C18.643 19.403 18.7787 19.4573 18.9144 19.4573H21.0859C21.2487 19.4573 21.3573 19.4301 21.4387 19.2401L25.9444 9.22442C27.7359 10.2287 29.2559 11.6673 30.3687 13.3773L24.0716 25.9716C24.0444 26.053 23.9901 26.1344 23.9087 26.1344C23.8273 26.1344 23.8001 26.053 23.7459 25.9716L21.3844 20.5973C21.303 20.4073 21.1944 20.3801 21.0316 20.3801H18.8601C18.6973 20.3801 18.5887 20.4073 18.5073 20.5973L16.2273 25.9716C16.2001 26.053 16.1459 26.1344 16.0644 26.1344ZM20.0001 33.5716C27.5187 33.5716 33.5716 27.5187 33.5716 20.0001C33.5716 12.4816 27.5187 6.42871 20.0001 6.42871C12.4816 6.42871 6.42871 12.4816 6.42871 20.0001C6.42871 27.5187 12.4816 33.5716 20.0001 33.5716Z" fill="#1F1D25"/>
</svg>
