<svg width="17" height="17" viewBox="0 0 17 17" fill="none" xmlns="http://www.w3.org/2000/svg">
<path d="M8.15242 1.43506C8.28016 1.16878 8.66033 1.16878 8.78807 1.43506L10.6012 5.21463C10.6527 5.32184 10.755 5.39585 10.8731 5.41135L15.0458 5.95846C15.3399 5.99701 15.4575 6.3585 15.2421 6.56185L12.1908 9.44297C12.1041 9.52489 12.0648 9.64505 12.0867 9.76218L12.8528 13.8779C12.9069 14.1683 12.5992 14.3916 12.3387 14.251L8.63799 12.2531C8.53334 12.1966 8.40715 12.1966 8.3025 12.2531L4.60179 14.251C4.34128 14.3916 4.03358 14.1683 4.08765 13.8779L4.85383 9.76218C4.87564 9.64505 4.83643 9.52489 4.74968 9.44297L1.69837 6.56185C1.48301 6.3585 1.60062 5.99701 1.89468 5.95846L6.06735 5.41135C6.18552 5.39585 6.28781 5.32184 6.33924 5.21463L8.15242 1.43506Z" stroke="#111014" stroke-opacity="0.56" stroke-width="1.05882" stroke-linecap="round" stroke-linejoin="round"/>
</svg>
