<svg width="17" height="17" viewBox="0 0 17 17" fill="none" xmlns="http://www.w3.org/2000/svg">
<path d="M1.41211 8.47051L0.785129 8.14622L0.617396 8.47051L0.785129 8.7948L1.41211 8.47051ZM15.5298 8.47044L16.1567 8.79473L16.3245 8.47044L16.1567 8.14614L15.5298 8.47044ZM1.41211 8.47051L2.03909 8.7948C3.647 5.6861 6.10826 4.2352 8.47094 4.23518C10.8336 4.23516 13.2949 5.68603 14.9028 8.79473L15.5298 8.47044L16.1567 8.14614C14.357 4.66661 11.4633 2.82339 8.47093 2.82341C5.47859 2.82344 2.58484 4.66669 0.785129 8.14622L1.41211 8.47051ZM1.41211 8.47051L0.785129 8.7948C2.58484 12.2743 5.47859 14.1176 8.47094 14.1175C11.4633 14.1175 14.357 12.2743 16.1567 8.79473L15.5298 8.47044L14.9028 8.14614C13.2949 11.2548 10.8336 12.7058 8.47093 12.7058C6.10826 12.7058 3.64699 11.2549 2.03909 8.14622L1.41211 8.47051ZM10.5886 8.47044H9.8827C9.8827 9.25013 9.25063 9.8822 8.47093 9.8822V10.5881V11.294C10.0303 11.294 11.2945 10.0298 11.2945 8.47044H10.5886ZM8.47093 10.5881V9.8822C7.69124 9.8822 7.05917 9.25013 7.05917 8.47044H6.35329H5.6474C5.6474 10.0298 6.91154 11.294 8.47093 11.294V10.5881ZM6.35329 8.47044H7.05917C7.05917 7.69074 7.69124 7.05867 8.47093 7.05867V6.35279V5.64691C6.91154 5.64691 5.6474 6.91104 5.6474 8.47044H6.35329ZM8.47093 6.35279V7.05867C9.25063 7.05867 9.8827 7.69074 9.8827 8.47044H10.5886H11.2945C11.2945 6.91104 10.0303 5.64691 8.47093 5.64691V6.35279Z" fill="#111014" fill-opacity="0.56"/>
</svg>
