<svg width="16" height="16" viewBox="0 0 16 16" fill="none" xmlns="http://www.w3.org/2000/svg">
<path d="M2.56442 9.53438C2.56442 10.06 2.68063 10.4635 2.83253 10.7076C3.03169 11.0274 3.32874 11.1629 3.63157 11.1629C4.02217 11.1629 4.37949 11.0666 5.0681 10.1212C5.61976 9.36349 6.26978 8.29986 6.70716 7.63305L7.44784 6.50336C7.96237 5.71879 8.55791 4.84663 9.24073 4.25546C9.79818 3.77295 10.3995 3.50488 11.0047 3.50488C12.0207 3.50488 12.9885 4.08936 13.7292 5.18554C14.5398 6.38608 14.9333 7.89824 14.9333 9.45875C14.9333 10.3864 14.7491 11.0681 14.4357 11.6066C14.1328 12.1274 13.5426 12.6477 12.5497 12.6477V11.1629C13.3999 11.1629 13.612 10.3874 13.612 9.49992C13.612 8.23523 13.315 6.83173 12.6606 5.82889C12.1962 5.11757 11.5944 4.68292 10.9324 4.68292C10.2163 4.68292 9.64001 5.21905 8.99239 6.17498C8.64809 6.68286 8.29462 7.3018 7.89775 8.0002L7.46086 8.76849C6.58323 10.3132 6.36092 10.665 5.92211 11.2457C5.15297 12.2624 4.49619 12.6477 3.63157 12.6477C2.60589 12.6477 1.95731 12.2069 1.55562 11.5425C1.22771 11.0011 1.06665 10.2907 1.06665 9.48125L2.56442 9.53438Z" fill="#0081FB"/>
<path d="M2.28564 5.29037C2.97026 4.23966 3.95824 3.50488 5.09142 3.50488C5.74767 3.50488 6.40007 3.69827 7.08133 4.25211C7.82652 4.85764 8.62075 5.85474 9.61162 7.49806L9.96691 8.0878C10.8246 9.51045 11.3126 10.2424 11.5982 10.5875C11.9655 11.0307 12.2227 11.1629 12.5568 11.1629C13.4044 11.1629 13.616 10.3874 13.616 9.49992L14.9333 9.45875C14.9333 10.3864 14.7496 11.0681 14.4371 11.6066C14.1352 12.1274 13.5467 12.6477 12.5568 12.6477C11.9414 12.6477 11.3962 12.5147 10.7934 11.9484C10.3299 11.5137 9.78806 10.7416 9.37123 10.0475L8.13133 7.98536C7.50921 6.95045 6.93854 6.17881 6.60825 5.82937C6.25296 5.4536 5.79623 4.99981 5.06738 4.99981C4.47748 4.99981 3.97651 5.41196 3.55728 6.04238L2.28564 5.29037Z" fill="url(#paint0_linear_14046_107376)"/>
<path d="M5.00465 5.00699C4.41789 5.00699 3.9196 5.42112 3.50261 6.05457C2.91299 6.94968 2.55195 8.28297 2.55195 9.56335C2.55195 10.0915 2.66719 10.4969 2.81783 10.7422L1.55155 11.5811C1.22637 11.0371 1.06665 10.3233 1.06665 9.50996C1.06665 8.03094 1.47025 6.48938 2.23777 5.29895C2.91873 4.24319 3.90143 3.50488 5.02856 3.50488L5.00465 5.00699Z" fill="url(#paint1_linear_14046_107376)"/>
<defs>
<linearGradient id="paint0_linear_14046_107376" x1="4.04094" y1="9.10548" x2="13.56" y2="9.58834" gradientUnits="userSpaceOnUse">
<stop stop-color="#0064E1"/>
<stop offset="0.4" stop-color="#0064E1"/>
<stop offset="0.83" stop-color="#0073EE"/>
<stop offset="1" stop-color="#0082FB"/>
</linearGradient>
<linearGradient id="paint1_linear_14046_107376" x1="3.21856" y1="10.1906" x2="3.21856" y2="6.67937" gradientUnits="userSpaceOnUse">
<stop stop-color="#0082FB"/>
<stop offset="1" stop-color="#0064E0"/>
</linearGradient>
</defs>
</svg>
