<svg width="18" height="18" viewBox="0 0 18 18" fill="none" xmlns="http://www.w3.org/2000/svg">
<path d="M14.309 5.88221L14.8898 4.59544L16.1766 4.01456C16.4634 3.88221 16.4634 3.4778 16.1766 3.34544L14.8898 2.76456L14.309 1.47044C14.1766 1.18368 13.7722 1.18368 13.6398 1.47044L13.059 2.75721L11.7648 3.33809C11.4781 3.47044 11.4781 3.87486 11.7648 4.00721L13.0516 4.58809L13.6325 5.88221C13.7648 6.16897 14.1766 6.16897 14.309 5.88221ZM8.45603 6.98515L7.28691 4.41162C7.02956 3.83809 6.20603 3.83809 5.94867 4.41162L4.77956 6.98515L2.20603 8.15427C1.6325 8.41897 1.6325 9.23515 2.20603 9.4925L4.77956 10.6616L5.94867 13.2352C6.21338 13.8087 7.02956 13.8087 7.28691 13.2352L8.45603 10.6616L11.0296 9.4925C11.6031 9.2278 11.6031 8.41162 11.0296 8.15427L8.45603 6.98515ZM13.6325 11.7646L13.0516 13.0513L11.7648 13.6322C11.4781 13.7646 11.4781 14.169 11.7648 14.3013L13.0516 14.8822L13.6325 16.1763C13.7648 16.4631 14.1693 16.4631 14.3016 16.1763L14.8825 14.8896L16.1766 14.3087C16.4634 14.1763 16.4634 13.7719 16.1766 13.6396L14.8898 13.0587L14.309 11.7646C14.1766 11.4778 13.7648 11.4778 13.6325 11.7646Z" fill="#6356E1"/>
</svg>
