<svg width="14" height="14" viewBox="0 0 14 14" fill="none" xmlns="http://www.w3.org/2000/svg">
<path fill-rule="evenodd" clip-rule="evenodd" d="M3.49401 2.8757C3.66486 3.04655 3.66486 3.32356 3.49401 3.49442C2.59625 4.39218 2.04175 5.63116 2.04175 7.00049C2.04175 8.36982 2.59625 9.6088 3.49401 10.5066C3.66486 10.6774 3.66486 10.9544 3.49401 11.1253C3.32316 11.2961 3.04615 11.2961 2.87529 11.1253C1.82015 10.0701 1.16675 8.6112 1.16675 7.00049C1.16675 5.38978 1.82015 3.93085 2.87529 2.8757C3.04615 2.70485 3.32316 2.70485 3.49401 2.8757ZM10.5062 2.8757C10.677 2.70485 10.954 2.70484 11.1249 2.8757C12.18 3.93085 12.8334 5.38978 12.8334 7.00049C12.8334 8.6112 12.18 10.0701 11.1249 11.1253C10.954 11.2961 10.677 11.2961 10.5062 11.1253C10.3353 10.9544 10.3353 10.6774 10.5062 10.5066C11.4039 9.6088 11.9584 8.36982 11.9584 7.00049C11.9584 5.63116 11.4039 4.39218 10.5062 3.49442C10.3353 3.32356 10.3353 3.04655 10.5062 2.8757ZM5.18976 4.57145C5.36061 4.7423 5.36061 5.01931 5.18976 5.19016C4.72598 5.65395 4.4399 6.29339 4.4399 7.00049C4.4399 7.70759 4.72598 8.34703 5.18976 8.81081C5.36061 8.98167 5.36061 9.25868 5.18976 9.42953C5.0189 9.60039 4.74189 9.60039 4.57104 9.42953C3.94987 8.80836 3.5649 7.94897 3.5649 7.00049C3.5649 6.05201 3.94987 5.19261 4.57104 4.57145C4.74189 4.40059 5.0189 4.40059 5.18976 4.57145ZM8.81041 4.57145C8.98126 4.40059 9.25827 4.40059 9.42912 4.57145C10.0503 5.19261 10.4353 6.05201 10.4353 7.00049C10.4353 7.94897 10.0503 8.80836 9.42912 9.42953C9.25827 9.60039 8.98126 9.60039 8.81041 9.42953C8.63955 9.25868 8.63955 8.98167 8.81041 8.81081C9.27419 8.34703 9.56027 7.70759 9.56027 7.00049C9.56027 6.29339 9.27419 5.65395 8.81041 5.19016C8.63955 5.01931 8.63955 4.7423 8.81041 4.57145ZM6.12508 7.00006C6.12508 6.51681 6.51683 6.12506 7.00008 6.12506C7.48333 6.12506 7.87508 6.51681 7.87508 7.00006C7.87508 7.48331 7.48333 7.87506 7.00008 7.87506C6.51683 7.87506 6.12508 7.48331 6.12508 7.00006Z" fill="#6356E1"/>
</svg>
