<svg width="200" height="200" viewBox="0 0 200 200" fill="none" xmlns="http://www.w3.org/2000/svg">
<g clip-path="url(#clip0_3694_212420)">
<path d="M42.709 116.303C39.6457 116.601 37.9741 118.481 37.709 121.928C37.4326 118.428 35.7698 116.693 32.709 116.303C35.8182 115.899 37.3504 114.176 37.709 110.678C38.0557 114.121 39.598 115.992 42.709 116.303Z" fill="#ACABFF"/>
<path d="M107.709 23.8027C104.646 24.101 102.974 25.9815 102.709 29.4277C102.433 25.9279 100.77 24.1928 97.709 23.8027C100.818 23.3993 102.35 21.6756 102.709 18.1777C103.056 21.6212 104.598 23.4918 107.709 23.8027Z" fill="#ACABFF"/>
<g clip-path="url(#clip1_3694_212420)">
<path d="M183.887 94.9482C183.875 94.8298 183.786 94.7404 183.68 94.7402C183.574 94.7401 183.485 94.8294 183.473 94.9478C183.394 95.7174 183.189 96.2586 182.859 96.6298C182.529 97.001 182.048 97.2311 181.364 97.3199C181.259 97.3336 181.18 97.4338 181.18 97.553C181.18 97.6721 181.259 97.7722 181.365 97.7856C182.037 97.8714 182.529 98.1014 182.866 98.4745C183.203 98.8463 183.412 99.3874 183.472 100.152C183.482 100.273 183.572 100.365 183.68 100.365C183.788 100.365 183.878 100.272 183.887 100.151C183.945 99.3994 184.154 98.847 184.492 98.4665C184.83 98.086 185.321 97.8513 185.989 97.7862C186.097 97.7758 186.18 97.6745 186.18 97.553C186.18 97.4315 186.097 97.33 185.99 97.3193C185.31 97.2514 184.83 97.0165 184.499 96.6379C184.167 96.2578 183.963 95.7051 183.887 94.9482Z" fill="#ACABFF"/>
<path d="M176.387 137.448C176.375 137.33 176.286 137.24 176.18 137.24C176.074 137.24 175.985 137.329 175.973 137.448C175.894 138.217 175.689 138.759 175.359 139.13C175.029 139.501 174.548 139.731 173.864 139.82C173.759 139.834 173.68 139.934 173.68 140.053C173.68 140.172 173.759 140.272 173.865 140.286C174.537 140.371 175.029 140.601 175.366 140.975C175.703 141.346 175.912 141.887 175.972 142.652C175.982 142.773 176.072 142.865 176.18 142.865C176.288 142.865 176.378 142.772 176.387 142.651C176.445 141.899 176.654 141.347 176.992 140.966C177.33 140.586 177.821 140.351 178.489 140.286C178.597 140.276 178.68 140.175 178.68 140.053C178.68 139.931 178.597 139.83 178.49 139.819C177.81 139.751 177.33 139.516 176.999 139.138C176.667 138.758 176.463 138.205 176.387 137.448Z" fill="#ACABFF"/>
<path d="M113.887 187.448C113.875 187.33 113.786 187.24 113.68 187.24C113.574 187.24 113.485 187.329 113.473 187.448C113.394 188.217 113.189 188.759 112.859 189.13C112.529 189.501 112.048 189.731 111.364 189.82C111.259 189.834 111.18 189.934 111.18 190.053C111.18 190.172 111.259 190.272 111.365 190.286C112.037 190.371 112.529 190.601 112.866 190.975C113.203 191.346 113.412 191.887 113.472 192.652C113.482 192.773 113.572 192.865 113.68 192.865C113.788 192.865 113.878 192.772 113.887 192.651C113.945 191.899 114.154 191.347 114.492 190.966C114.83 190.586 115.321 190.351 115.989 190.286C116.097 190.276 116.18 190.175 116.18 190.053C116.18 189.931 116.097 189.83 115.99 189.819C115.31 189.751 114.83 189.516 114.499 189.138C114.167 188.758 113.963 188.205 113.887 187.448Z" fill="#ACABFF"/>
<path d="M10.1367 144.948C10.1248 144.83 10.0358 144.74 9.9299 144.74C9.82397 144.74 9.73483 144.829 9.72276 144.948C9.64383 145.717 9.43926 146.259 9.10933 146.63C8.77933 147.001 8.29826 147.231 7.61412 147.32C7.50897 147.334 7.42954 147.434 7.42969 147.553C7.42983 147.672 7.50933 147.772 7.61455 147.786C8.2874 147.871 8.77869 148.101 9.11647 148.475C9.45304 148.846 9.66183 149.387 9.72219 150.152C9.73176 150.273 9.8219 150.365 9.9299 150.365C10.0379 150.365 10.1279 150.272 10.1373 150.151C10.1951 149.399 10.4037 148.847 10.7419 148.466C11.0801 148.086 11.5712 147.851 12.2393 147.786C12.3469 147.776 12.4295 147.675 12.4297 147.553C12.4298 147.431 12.3474 147.33 12.2398 147.319C11.5605 147.251 11.0795 147.016 10.749 146.638C10.4173 146.258 10.2129 145.705 10.1367 144.948Z" fill="#ACABFF"/>
<path d="M111.387 23.6982C111.375 23.5798 111.286 23.4904 111.18 23.4902C111.074 23.4901 110.985 23.5794 110.973 23.6978C110.894 24.4674 110.689 25.0086 110.359 25.3798C110.029 25.751 109.548 25.9811 108.864 26.0699C108.759 26.0836 108.68 26.1838 108.68 26.303C108.68 26.4221 108.759 26.5222 108.865 26.5356C109.537 26.6214 110.029 26.8514 110.366 27.2245C110.703 27.5963 110.912 28.1374 110.972 28.9016C110.982 29.0226 111.072 29.1154 111.18 29.1152C111.288 29.1151 111.378 29.0221 111.387 28.9011C111.445 28.1494 111.654 27.597 111.992 27.2165C112.33 26.836 112.821 26.6013 113.489 26.5362C113.597 26.5258 113.68 26.4245 113.68 26.303C113.68 26.1815 113.597 26.08 113.49 26.0693C112.81 26.0014 112.33 25.7665 111.999 25.3879C111.667 25.0078 111.463 24.4551 111.387 23.6982Z" fill="#ACABFF"/>
<path d="M77.6367 26.1982C77.6248 26.0798 77.5358 25.9904 77.4299 25.9902C77.324 25.9901 77.2348 26.0794 77.2228 26.1978C77.1438 26.9674 76.9393 27.5086 76.6093 27.8798C76.2793 28.251 75.7983 28.4811 75.1141 28.5699C75.009 28.5836 74.9295 28.6838 74.9297 28.803C74.9298 28.9221 75.0093 29.0222 75.1145 29.0356C75.7874 29.1214 76.2787 29.3514 76.6165 29.7245C76.953 30.0963 77.1618 30.6374 77.2222 31.4016C77.2318 31.5226 77.3219 31.6154 77.4299 31.6152C77.5379 31.6151 77.6279 31.5221 77.6373 31.4011C77.6951 30.6494 77.9037 30.097 78.2419 29.7165C78.5801 29.336 79.0712 29.1013 79.7393 29.0362C79.8469 29.0258 79.9295 28.9245 79.9297 28.803C79.9298 28.6815 79.8474 28.58 79.7398 28.5693C79.0605 28.5014 78.5795 28.2665 78.249 27.8879C77.9173 27.5078 77.7129 26.9551 77.6367 26.1982Z" fill="#ACABFF"/>
<path d="M45.1367 43.6982C45.1248 43.5798 45.0358 43.4904 44.9299 43.4902C44.824 43.4901 44.7348 43.5794 44.7228 43.6978C44.6438 44.4674 44.4393 45.0086 44.1093 45.3798C43.7793 45.751 43.2983 45.9811 42.6141 46.0699C42.509 46.0836 42.4295 46.1838 42.4297 46.303C42.4298 46.4221 42.5093 46.5222 42.6145 46.5356C43.2874 46.6214 43.7787 46.8514 44.1165 47.2245C44.453 47.5963 44.6618 48.1374 44.7222 48.9016C44.7318 49.0226 44.8219 49.1154 44.9299 49.1152C45.0379 49.1151 45.1279 49.0221 45.1373 48.9011C45.1951 48.1494 45.4037 47.597 45.7419 47.2165C46.0801 46.836 46.5712 46.6013 47.2393 46.5362C47.3469 46.5258 47.4295 46.4245 47.4297 46.303C47.4298 46.1815 47.3474 46.08 47.2398 46.0693C46.5605 46.0014 46.0795 45.7665 45.749 45.3879C45.4173 45.0078 45.2129 44.4551 45.1367 43.6982Z" fill="#ACABFF"/>
<path d="M20.1367 111.198C20.1248 111.08 20.0358 110.99 19.9299 110.99C19.824 110.99 19.7348 111.079 19.7228 111.198C19.6438 111.967 19.4393 112.509 19.1093 112.88C18.7793 113.251 18.2983 113.481 17.6141 113.57C17.509 113.584 17.4295 113.684 17.4297 113.803C17.4298 113.922 17.5093 114.022 17.6145 114.036C18.2874 114.121 18.7787 114.351 19.1165 114.725C19.453 115.096 19.6618 115.637 19.7222 116.402C19.7318 116.523 19.8219 116.615 19.9299 116.615C20.0379 116.615 20.1279 116.522 20.1373 116.401C20.1951 115.649 20.4037 115.097 20.7419 114.716C21.0801 114.336 21.5712 114.101 22.2393 114.036C22.3469 114.026 22.4295 113.925 22.4297 113.803C22.4298 113.681 22.3474 113.58 22.2398 113.569C21.5605 113.501 21.0795 113.266 20.749 112.888C20.4173 112.508 20.2129 111.955 20.1367 111.198Z" fill="#ACABFF"/>
<path d="M16.3867 78.6982C16.3748 78.5798 16.2858 78.4904 16.1799 78.4902C16.074 78.4901 15.9848 78.5794 15.9728 78.6978C15.8938 79.4674 15.6893 80.0086 15.3593 80.3798C15.0293 80.751 14.5483 80.9811 13.8641 81.0699C13.759 81.0836 13.6795 81.1838 13.6797 81.303C13.6798 81.4221 13.7593 81.5222 13.8645 81.5356C14.5374 81.6214 15.0287 81.8514 15.3665 82.2245C15.703 82.5963 15.9118 83.1374 15.9722 83.9016C15.9818 84.0226 16.0719 84.1154 16.1799 84.1152C16.2879 84.1151 16.3779 84.0221 16.3873 83.9011C16.4451 83.1494 16.6537 82.597 16.9919 82.2165C17.3301 81.836 17.8212 81.6013 18.4893 81.5362C18.5969 81.5258 18.6795 81.4245 18.6797 81.303C18.6798 81.1815 18.5974 81.08 18.4898 81.0693C17.8105 81.0014 17.3295 80.7665 16.999 80.3879C16.6673 80.0078 16.4629 79.4551 16.3867 78.6982Z" fill="#ACABFF"/>
<path d="M36.3867 66.1982C36.3748 66.0798 36.2858 65.9904 36.1799 65.9902C36.074 65.9901 35.9848 66.0794 35.9728 66.1978C35.8938 66.9674 35.6893 67.5086 35.3593 67.8798C35.0293 68.251 34.5483 68.4811 33.8641 68.5699C33.759 68.5836 33.6795 68.6838 33.6797 68.803C33.6798 68.9221 33.7593 69.0222 33.8645 69.0356C34.5374 69.1214 35.0287 69.3514 35.3665 69.7245C35.703 70.0963 35.9118 70.6374 35.9722 71.4016C35.9818 71.5226 36.0719 71.6154 36.1799 71.6152C36.2879 71.6151 36.3779 71.5221 36.3873 71.4011C36.4451 70.6494 36.6537 70.097 36.9919 69.7165C37.3301 69.336 37.8212 69.1013 38.4893 69.0362C38.5969 69.0258 38.6795 68.9245 38.6797 68.803C38.6798 68.6815 38.5974 68.58 38.4898 68.5693C37.8105 68.5014 37.3295 68.2665 36.999 67.8879C36.6673 67.5078 36.4629 66.9551 36.3867 66.1982Z" fill="#ACABFF"/>
<path d="M161.387 168.698C161.375 168.58 161.286 168.49 161.18 168.49C161.074 168.49 160.985 168.579 160.973 168.698C160.894 169.467 160.689 170.009 160.359 170.38C160.029 170.751 159.548 170.981 158.864 171.07C158.759 171.084 158.68 171.184 158.68 171.303C158.68 171.422 158.759 171.522 158.865 171.536C159.537 171.621 160.029 171.851 160.366 172.225C160.703 172.596 160.912 173.137 160.972 173.902C160.982 174.023 161.072 174.115 161.18 174.115C161.288 174.115 161.378 174.022 161.387 173.901C161.445 173.149 161.654 172.597 161.992 172.216C162.33 171.836 162.821 171.601 163.489 171.536C163.597 171.526 163.68 171.425 163.68 171.303C163.68 171.181 163.597 171.08 163.49 171.069C162.81 171.001 162.33 170.766 161.999 170.388C161.667 170.008 161.463 169.455 161.387 168.698Z" fill="#ACABFF"/>
<path d="M91.3867 168.698C91.3748 168.58 91.2858 168.49 91.1799 168.49C91.074 168.49 90.9848 168.579 90.9728 168.698C90.8938 169.467 90.6893 170.009 90.3593 170.38C90.0293 170.751 89.5483 170.981 88.8641 171.07C88.759 171.084 88.6795 171.184 88.6797 171.303C88.6798 171.422 88.7593 171.522 88.8645 171.536C89.5374 171.621 90.0287 171.851 90.3665 172.225C90.703 172.596 90.9118 173.137 90.9722 173.902C90.9818 174.023 91.0719 174.115 91.1799 174.115C91.2879 174.115 91.3779 174.022 91.3873 173.901C91.4451 173.149 91.6537 172.597 91.9919 172.216C92.3301 171.836 92.8212 171.601 93.4893 171.536C93.5969 171.526 93.6795 171.425 93.6797 171.303C93.6798 171.181 93.5974 171.08 93.4898 171.069C92.8105 171.001 92.3295 170.766 91.999 170.388C91.6673 170.008 91.4629 169.455 91.3867 168.698Z" fill="#ACABFF"/>
<path d="M86.3867 196.198C86.3748 196.08 86.2858 195.99 86.1799 195.99C86.074 195.99 85.9848 196.079 85.9728 196.198C85.8938 196.967 85.6893 197.509 85.3593 197.88C85.0293 198.251 84.5483 198.481 83.8641 198.57C83.759 198.584 83.6795 198.684 83.6797 198.803C83.6798 198.922 83.7593 199.022 83.8645 199.036C84.5374 199.121 85.0287 199.351 85.3665 199.725C85.703 200.096 85.9118 200.637 85.9722 201.402C85.9818 201.523 86.0719 201.615 86.1799 201.615C86.2879 201.615 86.3779 201.522 86.3873 201.401C86.4451 200.649 86.6537 200.097 86.9919 199.716C87.3301 199.336 87.8212 199.101 88.4893 199.036C88.5969 199.026 88.6795 198.925 88.6797 198.803C88.6798 198.681 88.5974 198.58 88.4898 198.569C87.8105 198.501 87.3295 198.266 86.999 197.888C86.6673 197.508 86.4629 196.955 86.3867 196.198Z" fill="#ACABFF"/>
<path d="M30.1367 171.198C30.1248 171.08 30.0358 170.99 29.9299 170.99C29.824 170.99 29.7348 171.079 29.7228 171.198C29.6438 171.967 29.4393 172.509 29.1093 172.88C28.7793 173.251 28.2983 173.481 27.6141 173.57C27.509 173.584 27.4295 173.684 27.4297 173.803C27.4298 173.922 27.5093 174.022 27.6145 174.036C28.2874 174.121 28.7787 174.351 29.1165 174.725C29.453 175.096 29.6618 175.637 29.7222 176.402C29.7318 176.523 29.8219 176.615 29.9299 176.615C30.0379 176.615 30.1279 176.522 30.1373 176.401C30.1951 175.649 30.4037 175.097 30.7419 174.716C31.0801 174.336 31.5712 174.101 32.2393 174.036C32.3469 174.026 32.4295 173.925 32.4297 173.803C32.4298 173.681 32.3474 173.58 32.2398 173.569C31.5605 173.501 31.0795 173.266 30.749 172.888C30.4173 172.508 30.2129 171.955 30.1367 171.198Z" fill="#ACABFF"/>
<path d="M48.8867 184.948C48.8748 184.83 48.7858 184.74 48.6799 184.74C48.574 184.74 48.4848 184.829 48.4728 184.948C48.3938 185.717 48.1893 186.259 47.8593 186.63C47.5293 187.001 47.0483 187.231 46.3641 187.32C46.259 187.334 46.1795 187.434 46.1797 187.553C46.1798 187.672 46.2593 187.772 46.3645 187.786C47.0374 187.871 47.5287 188.101 47.8665 188.475C48.203 188.846 48.4118 189.387 48.4722 190.152C48.4818 190.273 48.5719 190.365 48.6799 190.365C48.7879 190.365 48.8779 190.272 48.8873 190.151C48.9451 189.399 49.1537 188.847 49.4919 188.466C49.8301 188.086 50.3212 187.851 50.9893 187.786C51.0969 187.776 51.1795 187.675 51.1797 187.553C51.1798 187.431 51.0974 187.33 50.9898 187.319C50.3105 187.251 49.8295 187.016 49.499 186.638C49.1673 186.258 48.9629 185.705 48.8867 184.948Z" fill="#ACABFF"/>
<path d="M68.8867 182.448C68.8748 182.33 68.7858 182.24 68.6799 182.24C68.574 182.24 68.4848 182.329 68.4728 182.448C68.3938 183.217 68.1893 183.759 67.8593 184.13C67.5293 184.501 67.0483 184.731 66.3641 184.82C66.259 184.834 66.1795 184.934 66.1797 185.053C66.1798 185.172 66.2593 185.272 66.3645 185.286C67.0374 185.371 67.5287 185.601 67.8665 185.975C68.203 186.346 68.4118 186.887 68.4722 187.652C68.4818 187.773 68.5719 187.865 68.6799 187.865C68.7879 187.865 68.8779 187.772 68.8873 187.651C68.9451 186.899 69.1537 186.347 69.4919 185.966C69.8301 185.586 70.3212 185.351 70.9893 185.286C71.0969 185.276 71.1795 185.175 71.1797 185.053C71.1798 184.931 71.0974 184.83 70.9898 184.819C70.3105 184.751 69.8295 184.516 69.499 184.138C69.1673 183.758 68.9629 183.205 68.8867 182.448Z" fill="#ACABFF"/>
<path d="M131.387 28.6982C131.375 28.5798 131.286 28.4904 131.18 28.4902C131.074 28.4901 130.985 28.5794 130.973 28.6978C130.894 29.4674 130.689 30.0086 130.359 30.3798C130.029 30.751 129.548 30.9811 128.864 31.0699C128.759 31.0836 128.68 31.1838 128.68 31.303C128.68 31.4221 128.759 31.5222 128.865 31.5356C129.537 31.6214 130.029 31.8514 130.366 32.2245C130.703 32.5963 130.912 33.1374 130.972 33.9016C130.982 34.0226 131.072 34.1154 131.18 34.1152C131.288 34.1151 131.378 34.0221 131.387 33.9011C131.445 33.1494 131.654 32.597 131.992 32.2165C132.33 31.836 132.821 31.6013 133.489 31.5362C133.597 31.5258 133.68 31.4245 133.68 31.303C133.68 31.1815 133.597 31.08 133.49 31.0693C132.81 31.0014 132.33 30.7665 131.999 30.3879C131.667 30.0078 131.463 29.4551 131.387 28.6982Z" fill="#ACABFF"/>
<path d="M145.137 44.9482C145.125 44.8298 145.036 44.7404 144.93 44.7402C144.824 44.7401 144.735 44.8294 144.723 44.9478C144.644 45.7174 144.439 46.2586 144.109 46.6298C143.779 47.001 143.298 47.2311 142.614 47.3199C142.509 47.3336 142.43 47.4338 142.43 47.553C142.43 47.6721 142.509 47.7722 142.615 47.7856C143.287 47.8714 143.779 48.1014 144.116 48.4745C144.453 48.8463 144.662 49.3874 144.722 50.1516C144.732 50.2726 144.822 50.3654 144.93 50.3652C145.038 50.3651 145.128 50.2721 145.137 50.1511C145.195 49.3994 145.404 48.847 145.742 48.4665C146.08 48.086 146.571 47.8513 147.239 47.7862C147.347 47.7758 147.43 47.6745 147.43 47.553C147.43 47.4315 147.347 47.33 147.24 47.3193C146.56 47.2514 146.08 47.0165 145.749 46.6379C145.417 46.2578 145.213 45.7051 145.137 44.9482Z" fill="#ACABFF"/>
<path d="M73.8867 49.9482C73.8748 49.8298 73.7858 49.7404 73.6799 49.7402C73.574 49.7401 73.4848 49.8294 73.4728 49.9478C73.3938 50.7174 73.1893 51.2586 72.8593 51.6298C72.5293 52.001 72.0483 52.2311 71.3641 52.3199C71.259 52.3336 71.1795 52.4338 71.1797 52.553C71.1798 52.6721 71.2593 52.7722 71.3645 52.7856C72.0374 52.8714 72.5287 53.1014 72.8665 53.4745C73.203 53.8463 73.4118 54.3874 73.4722 55.1516C73.4818 55.2726 73.5719 55.3654 73.6799 55.3652C73.7879 55.3651 73.8779 55.2721 73.8873 55.1511C73.9451 54.3994 74.1537 53.847 74.4919 53.4665C74.8301 53.086 75.3212 52.8513 75.9893 52.7862C76.0969 52.7758 76.1795 52.6745 76.1797 52.553C76.1798 52.4315 76.0974 52.33 75.9898 52.3193C75.3105 52.2514 74.8295 52.0165 74.499 51.6379C74.1673 51.2578 73.9629 50.7051 73.8867 49.9482Z" fill="#ACABFF"/>
</g>
<path d="M76.1147 100.256L54.3105 121.758V133.624C54.3105 140.246 59.6783 145.614 66.2998 145.614H131.041C133.559 145.614 135.944 144.486 137.542 142.54C139.511 140.143 139.359 136.649 137.189 134.433L114.663 111.419C113.208 109.932 110.812 109.942 109.369 111.44L103.519 117.516C102.076 119.014 99.6814 119.024 98.2261 117.538L81.3403 100.301C79.9112 98.842 77.5688 98.8217 76.1147 100.256Z" fill="#6356E1"/>
<path d="M58 116.101L77.0376 97.4688C78.4932 96.0442 80.8279 96.0688 82.2532 97.5237L99.1488 114.771C100.604 116.257 102.999 116.247 104.441 114.749L110.32 108.644C111.752 107.157 114.126 107.134 115.586 108.594L140.08 133.089" stroke="#1E1A42" stroke-width="1.5" stroke-linejoin="bevel"/>
<path d="M129.993 58H69.067C62.9549 58 58 62.9548 58 69.067V129.993C58 136.105 62.9548 141.06 69.067 141.06H129.993C136.105 141.06 141.06 136.105 141.06 129.993V69.067C141.06 62.9549 136.105 58 129.993 58Z" stroke="#1E1A42" stroke-width="1.5" stroke-linecap="square"/>
<path d="M99.5869 74.5396C98.9416 75.9384 98.5791 77.4947 98.5791 79.1362C98.5791 85.2066 103.502 90.1282 109.574 90.1284C112.339 90.1284 114.863 89.1053 116.795 87.4214C115.054 91.1957 111.238 93.8169 106.808 93.8169C100.735 93.8168 95.8125 88.8951 95.8125 82.8247C95.8126 79.518 97.2753 76.5545 99.5869 74.5396Z" fill="#6356E1"/>
<mask id="path-29-inside-1_3694_212420" fill="white">
<path d="M100.19 74.1719C100.103 74.7294 100.058 75.3008 100.058 75.8828C100.058 81.9532 104.98 86.8749 111.053 86.875C113.971 86.875 116.621 85.736 118.59 83.8818C117.768 89.14 113.218 93.1631 107.728 93.1631C101.655 93.163 96.7325 88.2422 96.7324 82.1719C96.7324 79.0183 98.0624 76.1763 100.19 74.1719Z"/>
</mask>
<path d="M100.19 74.1719L101.672 74.4036L102.349 70.0783L99.162 73.08L100.19 74.1719ZM100.058 75.8828L98.5576 75.8828V75.8828H100.058ZM111.053 86.875L111.053 88.375H111.053V86.875ZM118.59 83.8818L120.072 84.1135L120.748 79.7885L117.561 82.79L118.59 83.8818ZM107.728 93.1631L107.728 94.6631H107.728V93.1631ZM96.7324 82.1719H95.2324V82.1719L96.7324 82.1719ZM100.19 74.1719L98.7084 73.9401C98.6094 74.5734 98.5576 75.2223 98.5576 75.8828L100.058 75.8828L101.558 75.8828C101.558 75.3793 101.597 74.8854 101.672 74.4036L100.19 74.1719ZM100.058 75.8828H98.5576C98.5576 82.782 104.152 88.3749 111.053 88.375L111.053 86.875L111.053 85.375C105.808 85.3749 101.558 81.1244 101.558 75.8828H100.058ZM111.053 86.875V88.375C114.369 88.375 117.384 87.0787 119.618 84.9737L118.59 83.8818L117.561 82.79C115.859 84.3932 113.572 85.375 111.053 85.375V86.875ZM118.59 83.8818L117.108 83.6502C116.398 88.1893 112.468 91.6631 107.728 91.6631V93.1631V94.6631C113.968 94.6631 119.138 90.0907 120.072 84.1135L118.59 83.8818ZM107.728 93.1631L107.728 91.6631C102.483 91.663 98.2325 87.4132 98.2324 82.1718L96.7324 82.1719L95.2324 82.1719C95.2326 89.0711 100.827 94.663 107.728 94.6631L107.728 93.1631ZM96.7324 82.1719H98.2324C98.2324 79.4494 99.3786 76.9971 101.219 75.2638L100.19 74.1719L99.162 73.08C96.7461 75.3555 95.2324 78.5872 95.2324 82.1719H96.7324Z" fill="#1E1A42" mask="url(#path-29-inside-1_3694_212420)"/>
</g>
<defs>
<clipPath id="clip0_3694_212420">
<rect width="200" height="200" rx="100" fill="white"/>
</clipPath>
<clipPath id="clip1_3694_212420">
<rect width="200" height="200" rx="100" fill="white"/>
</clipPath>
</defs>
</svg>
